<svg width="281" height="118" xmlns="http://www.w3.org/2000/svg" xmlns:xlink="http://www.w3.org/1999/xlink" xml:space="preserve" overflow="hidden"><g transform="translate(-201 -242)"><path d="M121.519 197.138C121.122 195.347 120.392 192.959 119.928 191.831 119.264 190.106 120.127 189.708 124.438 189.708 128.882 189.708 129.877 190.173 130.541 192.892 130.939 194.683 131.668 197.071 132.133 198.199 132.796 199.923 131.934 200.321 127.622 200.321 123.178 200.321 122.183 199.857 121.519 197.138Z" fill="#90A9DA" transform="matrix(1.00464 0 0 -1 118.855 449.686)"/><path d="M113.361 172.131C113.029 171.202 107.789 155.946 101.686 138.235L90.609 105.998 95.9155 106.396 101.222 106.794 112.233 139.296C118.269 157.206 123.31 172.263 123.31 172.794 123.443 174.518 114.024 173.855 113.361 172.131Z" fill="#90A9DA" transform="matrix(1.00464 0 0 -1 118.855 449.686)"/><path d="M127.357 133.725C122.647 119.729 118.535 107.789 118.269 107.192 118.07 106.595 119.331 106.131 121.122 106.131 124.04 106.131 124.77 107.325 128.02 117.274L131.668 128.418 139.031 128.086C143.144 127.887 146.593 127.224 146.792 126.561 146.924 125.897 147.787 121.055 148.583 115.749 150.108 106.462 150.307 106.131 153.823 106.131L157.538 106.131 155.216 117.341 152.961 128.484 157.67 131.602C176.641 143.94 171.733 159.196 148.715 159.196L135.98 159.196 127.357 133.725ZM160.456 151.302C163.706 148.052 162.181 141.419 157.14 136.975 154.155 134.388 133.99 132.133 133.99 134.454 133.99 134.852 138.368 147.986 139.96 152.231 141.021 155.15 157.339 154.42 160.456 151.302Z" fill="#90A9DA" transform="matrix(1.00464 0 0 -1 118.855 449.686)"/><path d="M176.575 138.766C168.947 115.815 168.748 114.422 172.462 109.712 178.299 102.283 193.29 104.008 202.444 113.228 210.271 121.122 223.339 159.196 218.231 159.196 215.445 159.196 214.583 157.538 209.542 142.281 202.51 121.055 199.99 116.014 195.081 113.427 186.989 109.314 176.442 111.769 176.442 117.871 176.442 119.795 186.06 149.644 189.045 156.874 189.775 158.732 189.31 159.196 186.657 159.196 183.54 159.196 182.943 157.869 176.575 138.766Z" fill="#90A9DA" transform="matrix(1.00464 0 0 -1 118.855 449.686)"/><path d="M224.267 134.322C219.624 120.657 215.511 108.717 215.18 107.789 214.848 106.794 215.843 106.131 217.767 106.131 220.685 106.131 221.481 107.789 227.385 125.698 234.482 147.389 235.411 149.113 236.737 143.674 241.779 123.178 248.412 106.131 251.397 106.131 254.116 106.131 266.52 137.439 271.694 157.538 271.96 158.533 270.898 159.196 269.041 159.196 266.189 159.196 265.326 157.339 258.76 137.638L251.596 116.08 248.412 126.693C235.477 169.544 236.141 169.345 224.267 134.322Z" fill="#90A9DA" transform="matrix(1.00464 0 0 -1 118.855 449.686)"/><path d="M288.542 156.211C281.777 152.43 276.205 142.149 278.062 136.908 279.322 133.393 282.042 132 294.247 128.75 303.003 126.428 303.6 119.065 295.441 113.958 290.068 110.575 276.205 110.906 272.225 114.488 269.903 116.611 269.638 116.611 267.449 114.223 259.158 105.069 289.139 102.018 299.819 110.973 312.488 121.652 310.498 131.668 294.977 135.25 285.16 137.505 282.971 139.429 284.629 144.072 287.547 152.43 299.288 156.145 308.575 151.767 312.223 150.042 313.483 149.909 315.075 151.236 323.168 157.936 299.554 162.38 288.542 156.211Z" fill="#90A9DA" transform="matrix(1.00464 0 0 -1 118.855 449.686)"/><path d="M325.357 132.663C307.646 107.59 306.784 106.131 310.167 106.131 312.953 106.131 314.544 107.457 317.529 112.1L321.31 118.07 333.781 118.07 346.251 118.07 346.251 112.1C346.251 106.529 346.516 106.131 349.767 106.131L353.282 106.131 352.42 115.085C351.955 119.994 351.557 131.934 351.557 141.618L351.557 159.196 347.843 159.196C344.593 159.196 342.138 156.277 325.357 132.663ZM345.389 137.638 346.185 124.703 336.235 124.703 326.285 124.703 335.24 137.837C340.215 145.001 344.327 150.838 344.394 150.772 344.46 150.639 344.924 144.736 345.389 137.638Z" fill="#90A9DA" transform="matrix(1.00464 0 0 -1 118.855 449.686)"/></g></svg>