<svg xmlns="http://www.w3.org/2000/svg" xmlns:xlink="http://www.w3.org/1999/xlink" viewBox="0 0 657.48 164.39"><defs><style>.cls-1{fill:url(#linear-gradient);}.cls-2{fill:url(#linear-gradient-2);}.cls-3{fill:url(#linear-gradient-3);}.cls-4{fill:url(#linear-gradient-4);}.cls-5{fill:url(#linear-gradient-5);}.cls-6{fill:url(#linear-gradient-6);}.cls-7{fill:url(#linear-gradient-7);}.cls-8{fill:url(#linear-gradient-8);}.cls-9{fill:url(#linear-gradient-9);}.cls-10{fill:url(#linear-gradient-10);}.cls-11{fill:url(#linear-gradient-11);}.cls-12{fill:url(#linear-gradient-12);}.cls-13,.cls-14{font-size:80px;}.cls-13{fill:#999;font-family:Poppins-SemiBold, Poppins;font-weight:600;}.cls-14{font-family:Poppins-Medium, Poppins;font-weight:500;}</style><linearGradient id="linear-gradient" x1="95.51" y1="0.42" x2="113.04" y2="98.27" gradientUnits="userSpaceOnUse"><stop offset="0" stop-color="#00f4ff"/><stop offset="0.5" stop-color="#00b1ff"/><stop offset="1" stop-color="#176fe9"/></linearGradient><linearGradient id="linear-gradient-2" x1="35.75" y1="157.06" x2="151.88" y2="58.27" xlink:href="#linear-gradient"/><linearGradient id="linear-gradient-3" x1="60.95" y1="-69.45" x2="42.1" y2="128.12" xlink:href="#linear-gradient"/><linearGradient id="linear-gradient-4" x1="35.85" y1="180.9" x2="151.98" y2="82.11" xlink:href="#linear-gradient"/><linearGradient id="linear-gradient-5" x1="24.26" y1="207.18" x2="140.39" y2="108.4" xlink:href="#linear-gradient"/><linearGradient id="linear-gradient-6" x1="51.69" y1="-62.24" x2="32.84" y2="135.34" gradientUnits="userSpaceOnUse"><stop offset="0" stop-color="#00f4ff"/><stop offset="0.5" stop-color="#00b1ff"/><stop offset="0.99" stop-color="#1754e9"/></linearGradient><linearGradient id="linear-gradient-7" x1="27.29" y1="-35.98" x2="8.44" y2="161.6" xlink:href="#linear-gradient"/><linearGradient id="linear-gradient-8" x1="77" y1="-89.3" x2="58.15" y2="108.27" xlink:href="#linear-gradient"/><linearGradient id="linear-gradient-9" x1="107.46" y1="-15.28" x2="125" y2="82.57" xlink:href="#linear-gradient"/><linearGradient id="linear-gradient-10" x1="109.61" y1="-36.22" x2="127.14" y2="61.62" xlink:href="#linear-gradient"/><linearGradient id="linear-gradient-11" x1="55.4" y1="-77.37" x2="36.54" y2="120.2" xlink:href="#linear-gradient-6"/><linearGradient id="linear-gradient-12" x1="83.37" y1="-121.16" x2="64.52" y2="76.42" xlink:href="#linear-gradient"/></defs><title>Asset 1</title><g id="Layer_2" data-name="Layer 2"><g id="Layer_1-2" data-name="Layer 1"><path class="cls-1" d="M161.69,61.17c-13.35-18.15-26.37.11-31.6,6.79-5.46,7-10,9.8-15.07,2.07s-12.64-22.25-17.54-31.3C88.12,20,69.74-3.55,42,10.48A81.5,81.5,0,0,1,73.83.43,82.57,82.57,0,0,1,82.2,0,84.75,84.75,0,0,1,92.46.63a82.3,82.3,0,0,1,69.23,60.54Z"/><path class="cls-2" d="M161.67,103.3A83.19,83.19,0,0,1,120.37,155a80.08,80.08,0,0,1-18.77,7.11,82.47,82.47,0,0,1-48.51-3,82.4,82.4,0,0,1-48-48.41c17,38,54.88,36.08,64.5,1.2C72.25,103,74,87.43,78.49,74.69,85.18,55.87,93.33,71.45,102.81,90s21.35,21.36,34.07.86S166.29,86.3,161.67,103.3Z"/><path class="cls-3" d="M97.48,38.73l-.4-.74C89.86,25.06,83,22.5,74.1,31.2c-.9.88-1.93,2-3.06,3.22C67.8,38,63.74,43,59.45,48.79,50.19,61.36,39.93,77.68,35.08,91.52c-3.34,9.49-2.49,17.79.59,24a22.16,22.16,0,0,0,7.4,8.63h0c9.08,6.13,21.68,3.77,26.49-12.24-9.61,34.8-47.39,36.77-64.39-1,0-.07-.07-.12-.08-.15l0-.06A77.63,77.63,0,0,1,1.79,99.26a.34.34,0,0,0,0-.1.1.1,0,0,1,0,0A82.76,82.76,0,0,1,0,84.92v0c0-.89,0-1.8,0-2.7A81.85,81.85,0,0,1,19.66,28.86l.08-.08a82,82,0,0,1,14.57-13.4h0a78.37,78.37,0,0,1,7.57-4.84l.13-.06C69.36-3.36,87.62,19.38,97.1,38Z"/><path class="cls-4" d="M146.69,124.13c-5.07,12.14-10,19.48-26.32,30.83a80.08,80.08,0,0,1-18.77,7.11,82.47,82.47,0,0,1-48.51-3,82.35,82.35,0,0,1-26.94-16.77c30,18.09,57,.56,67.18-23.84,5.56-13.31,9.81-5.09,14.71-1.13s10.74,7.72,22-2.07S152,111.53,146.69,124.13Z"/><path class="cls-5" d="M120.29,144.88c-4,7-7,12.6-18.69,17.19a82.47,82.47,0,0,1-48.51-3c11.3,1.41,32.7,1.32,50.42-18.25C116.8,126.16,125.2,136.2,120.29,144.88Z"/><path class="cls-6" d="M43.09,124.12h0a22.16,22.16,0,0,1-7.4-8.63c-21.25,15.75-33-14-33.88-16.23a77.63,77.63,0,0,0,3.29,11.42l0,.06s0,.08.08.15c17,37.76,54.78,35.79,64.39,1C64.77,127.89,52.17,130.25,43.09,124.12Z"/><path class="cls-7" d="M33.81,40.05C25,50.08,16,63.44,17.83,82,19.25,96.82,2.35,100.8,0,84.92v0c0-.89,0-1.8,0-2.7A81.85,81.85,0,0,1,19.66,28.86l.08-.08C30.58,18.34,43.26,29.33,33.81,40.05Z"/><path class="cls-8" d="M97.48,38.73l-.4-.74C89.86,25.06,83,22.5,74.1,31.2c-.9.88-1.93,2-3.06,3.22C67.8,38,63.74,43,59.45,48.79c5-23.77-10.37-37.7-25.13-33.41a78.37,78.37,0,0,1,7.57-4.84l.13-.06C69.36-3.36,87.62,19.38,97.1,38Z"/><path class="cls-9" d="M145.09,29.28A82.06,82.06,0,0,0,92.46.63,84.75,84.75,0,0,0,82.2,0a82.57,82.57,0,0,0-8.37.43c12.66,3.64,26.9,15.14,40.8,46.22,3.65,8.17,10.18,7.26,15.27,2.14C133.67,45,143.2,33,154.3,42.7A81.39,81.39,0,0,0,145.09,29.28Z"/><path class="cls-10" d="M145.09,29.28c-7.39-4.12-13-.76-17.12,2-4.31,2.89-7.71,3.61-11.59-5.31C109.3,9.75,100.05,3.35,92.46.63A82.06,82.06,0,0,1,145.09,29.28Z"/><path class="cls-11" d="M69.58,111.88c-9.61,34.8-47.39,36.77-64.39-1,1.5,2.57,17.13,28.23,37.88,13.23h0C52.17,130.25,64.77,127.89,69.58,111.88Z"/><path class="cls-12" d="M97.1,38l0,0C89.86,25.06,83,22.5,74.1,31.2c-.9.88-1.93,2-3.06,3.22C71.5,16,52.52,8.92,41.89,10.54l.13-.06C69.36-3.36,87.62,19.38,97.1,38Z"/><text class="cls-13" transform="translate(190.7 110.56)">MAUI</text><text class="cls-14" transform="translate(408.85 110.26)">STORE</text></g></g></svg>