<svg width="1579" height="1568" xmlns="http://www.w3.org/2000/svg" xmlns:xlink="http://www.w3.org/1999/xlink" xml:space="preserve" overflow="hidden"><g transform="translate(-2298 -418)"><g><g><g><path d="M419.139 679.957C417.767 673.78 415.25 665.544 413.648 661.654 411.361 655.706 414.335 654.333 429.206 654.333 444.535 654.333 447.967 655.935 450.254 665.315 451.627 671.492 454.144 679.729 455.745 683.618 458.033 689.567 455.059 690.939 440.188 690.939 424.859 690.939 421.427 689.338 419.139 679.957Z" stroke="#000000" stroke-width="0.32684" fill="#FFFFFF" transform="matrix(1.00028 0 0 -1 2290.9 1635.34)"/><path d="M390.998 593.704C389.854 590.501 371.78 537.88 350.732 476.794L312.524 365.603 330.827 366.976 349.13 368.348 387.109 480.454C407.929 542.227 425.317 594.162 425.317 595.992 425.774 601.941 393.286 599.653 390.998 593.704Z" stroke="#000000" stroke-width="0.32684" fill="#FFFFFF" transform="matrix(1.00028 0 0 -1 2290.9 1635.34)"/><path d="M439.273 461.236C423.029 412.962 408.844 371.78 407.929 369.721 407.242 367.662 411.589 366.061 417.767 366.061 427.833 366.061 430.35 370.179 441.561 404.497L454.144 442.933 479.539 441.789C493.724 441.103 505.621 438.815 506.307 436.527 506.765 434.239 509.739 417.538 512.485 399.235 517.747 367.204 518.433 366.061 530.559 366.061L543.371 366.061 535.364 404.726 527.585 443.162 543.829 453.915C609.262 496.47 592.332 549.091 512.942 549.091L469.015 549.091 439.273 461.236ZM553.438 521.865C564.648 510.654 559.386 487.776 541.998 472.447 531.703 463.524 462.151 455.745 462.151 463.753 462.151 465.126 477.251 510.426 482.742 525.068 486.403 535.135 542.685 532.618 553.438 521.865Z" stroke="#000000" stroke-width="0.32684" fill="#FFFFFF" transform="matrix(1.00028 0 0 -1 2290.9 1635.34)"/><path d="M609.033 478.624C582.723 399.464 582.036 394.659 594.848 378.415 614.982 352.791 666.688 358.739 698.26 390.541 725.257 417.767 770.329 549.091 752.712 549.091 743.103 549.091 740.129 543.371 722.741 490.75 698.489 417.538 689.795 400.15 672.865 391.227 644.953 377.042 608.576 385.507 608.576 406.556 608.576 413.191 641.75 516.145 652.045 541.083 654.562 547.489 652.96 549.091 643.809 549.091 633.056 549.091 630.997 544.515 609.033 478.624Z" stroke="#000000" stroke-width="0.32684" fill="#FFFFFF" transform="matrix(1.00028 0 0 -1 2290.9 1635.34)"/><path d="M773.532 463.295C757.516 416.165 743.332 374.983 742.188 371.78 741.044 368.348 744.476 366.061 751.11 366.061 761.177 366.061 763.923 371.78 784.285 433.553 808.765 508.367 811.968 514.315 816.544 495.554 833.932 424.859 856.81 366.061 867.106 366.061 876.486 366.061 919.269 474.048 937.115 543.371 938.03 546.803 934.369 549.091 927.963 549.091 918.126 549.091 915.151 542.685 892.501 474.735L867.792 400.379 856.81 436.985C812.197 584.782 814.485 584.095 773.532 463.295Z" stroke="#000000" stroke-width="0.32684" fill="#FFFFFF" transform="matrix(1.00028 0 0 -1 2290.9 1635.34)"/><path d="M995.227 538.795C971.891 525.754 952.672 490.292 959.079 472.218 963.426 460.092 972.806 455.288 1014.9 444.077 1045.1 436.07 1047.16 410.674 1019.02 393.057 1000.49 381.389 952.672 382.533 938.945 394.888 930.938 402.209 930.023 402.209 922.473 393.973 893.874 362.4 997.286 351.876 1034.12 382.762 1077.82 419.597 1070.96 454.144 1017.42 466.498 983.559 474.277 976.009 480.912 981.729 496.927 991.795 525.754 1032.29 538.567 1064.32 523.467 1076.9 517.518 1081.25 517.06 1086.74 521.636 1114.65 544.744 1033.21 560.073 995.227 538.795Z" stroke="#000000" stroke-width="0.32684" fill="#FFFFFF" transform="matrix(1.00028 0 0 -1 2290.9 1635.34)"/><path d="M1122.2 457.576C1061.12 371.094 1058.14 366.061 1069.81 366.061 1079.42 366.061 1084.91 370.636 1095.21 386.651L1108.25 407.242 1151.26 407.242 1194.27 407.242 1194.27 386.651C1194.27 367.433 1195.19 366.061 1206.4 366.061L1218.52 366.061 1215.55 396.947C1213.95 413.877 1212.58 455.059 1212.58 488.462L1212.58 549.091 1199.76 549.091C1188.55 549.091 1180.09 539.024 1122.2 457.576ZM1191.3 474.735 1194.04 430.121 1159.73 430.121 1125.41 430.121 1156.29 475.421C1173.45 500.13 1187.64 520.263 1187.87 520.035 1188.1 519.577 1189.7 499.215 1191.3 474.735Z" stroke="#000000" stroke-width="0.32684" fill="#FFFFFF" transform="matrix(1.00028 0 0 -1 2290.9 1635.34)"/></g></g></g></g></svg>